<svg width="53" height="55" viewBox="0 0 53 55" fill="none" xmlns="http://www.w3.org/2000/svg">
<path fill-rule="evenodd" clip-rule="evenodd" d="M16.5158 0.827576C17.6489 0.827576 18.5675 1.77704 18.5675 2.94825V6.48272H32.2459V2.94825C32.2459 1.77704 33.1645 0.827576 34.2977 0.827576C35.4308 0.827576 36.3494 1.77704 36.3494 2.94825V6.48272H42.5047C46.6596 6.48272 50.0278 9.96407 50.0278 14.2585V22.7413C50.0278 23.9125 49.1092 24.8619 47.9761 24.8619H4.88916V43.948C4.88916 45.9001 6.42016 47.4825 8.30875 47.4825H21.9871C23.1203 47.4825 24.0389 48.432 24.0389 49.6032C24.0389 50.7744 23.1203 51.7239 21.9871 51.7239H8.30875C4.15386 51.7239 0.785645 48.2425 0.785645 43.948V14.2585C0.785645 9.96407 4.15386 6.48272 8.30875 6.48272H14.464V2.94825C14.464 1.77704 15.3826 0.827576 16.5158 0.827576ZM14.464 10.7241H8.30875C6.42016 10.7241 4.88916 12.3065 4.88916 14.2585V20.6206H45.9243V14.2585C45.9243 12.3065 44.3933 10.7241 42.5047 10.7241H36.3494V12.8448C36.3494 14.016 35.4308 14.9654 34.2977 14.9654C33.1645 14.9654 32.2459 14.016 32.2459 12.8448V10.7241H18.5675V12.8448C18.5675 14.016 17.6489 14.9654 16.5158 14.9654C15.3826 14.9654 14.464 14.016 14.464 12.8448V10.7241ZM48.0746 36.7772C47.2942 35.9706 46.0289 35.9706 45.2485 36.7772L34.9816 47.389V50.3101H37.8078L48.0746 39.6983C48.8551 38.8917 48.8551 37.5838 48.0746 36.7772ZM42.3469 33.7781C44.7298 31.3151 48.5933 31.3151 50.9763 33.7781C53.3592 36.2411 53.3592 40.2344 50.9763 42.6974L40.1084 53.9303C39.7237 54.328 39.2018 54.5514 38.6576 54.5514H32.9298C31.7967 54.5514 30.8781 53.602 30.8781 52.4307V46.5106C30.8781 45.9481 31.0942 45.4087 31.479 45.011L42.3469 33.7781Z" fill="white"/>
</svg>
