<svg width="145" height="52" viewBox="0 0 145 52" fill="none" xmlns="http://www.w3.org/2000/svg">
<g filter="url(#filter0_d_132_1070)">
<rect x="4" width="137" height="44" rx="6" fill="#636363"/>
<path d="M52.5629 29V14.4545H54.7575V27.1108H61.3484V29H52.5629ZM68.2766 29.2202C67.2539 29.2202 66.3614 28.9858 65.5991 28.517C64.8368 28.0483 64.2449 27.3925 63.8235 26.5497C63.4021 25.7069 63.1914 24.7221 63.1914 23.5952C63.1914 22.4635 63.4021 21.474 63.8235 20.6264C64.2449 19.7789 64.8368 19.1207 65.5991 18.652C66.3614 18.1832 67.2539 17.9489 68.2766 17.9489C69.2994 17.9489 70.1919 18.1832 70.9542 18.652C71.7165 19.1207 72.3084 19.7789 72.7298 20.6264C73.1512 21.474 73.3619 22.4635 73.3619 23.5952C73.3619 24.7221 73.1512 25.7069 72.7298 26.5497C72.3084 27.3925 71.7165 28.0483 70.9542 28.517C70.1919 28.9858 69.2994 29.2202 68.2766 29.2202ZM68.2837 27.4375C68.9466 27.4375 69.4959 27.2623 69.9315 26.9119C70.3671 26.5616 70.689 26.0952 70.8974 25.5128C71.1104 24.9304 71.217 24.2888 71.217 23.5881C71.217 22.892 71.1104 22.2528 70.8974 21.6705C70.689 21.0833 70.3671 20.6122 69.9315 20.2571C69.4959 19.902 68.9466 19.7244 68.2837 19.7244C67.6161 19.7244 67.0621 19.902 66.6218 20.2571C66.1862 20.6122 65.8619 21.0833 65.6488 21.6705C65.4405 22.2528 65.3363 22.892 65.3363 23.5881C65.3363 24.2888 65.4405 24.9304 65.6488 25.5128C65.8619 26.0952 66.1862 26.5616 66.6218 26.9119C67.0621 27.2623 67.6161 27.4375 68.2837 27.4375ZM80.3061 33.3182C79.4396 33.3182 78.6939 33.2045 78.0689 32.9773C77.4486 32.75 76.942 32.4493 76.549 32.0753C76.156 31.7012 75.8625 31.2917 75.6683 30.8466L77.4936 30.0938C77.6214 30.3021 77.7919 30.5223 78.005 30.7543C78.2228 30.991 78.5163 31.1922 78.8857 31.358C79.2597 31.5237 79.7403 31.6065 80.3274 31.6065C81.1323 31.6065 81.7976 31.41 82.3232 31.017C82.8487 30.6288 83.1115 30.0085 83.1115 29.1562V27.0114H82.9766C82.8487 27.2434 82.6641 27.5014 82.4226 27.7855C82.1858 28.0696 81.8591 28.3158 81.4425 28.5241C81.0258 28.7325 80.4837 28.8366 79.8161 28.8366C78.9543 28.8366 78.1778 28.6354 77.4865 28.233C76.8 27.8258 76.2554 27.2268 75.853 26.4361C75.4553 25.6406 75.2564 24.6629 75.2564 23.5028C75.2564 22.3428 75.4529 21.3485 75.8459 20.5199C76.2436 19.6913 76.7881 19.0568 77.4794 18.6165C78.1707 18.1714 78.9543 17.9489 79.8303 17.9489C80.5073 17.9489 81.0542 18.0625 81.4709 18.2898C81.8875 18.5123 82.2119 18.7727 82.4439 19.071C82.6806 19.3693 82.8629 19.6321 82.9908 19.8594H83.147V18.0909H85.228V29.2415C85.228 30.179 85.0102 30.9484 84.5746 31.5497C84.139 32.151 83.5495 32.5961 82.8061 32.8849C82.0675 33.1738 81.2341 33.3182 80.3061 33.3182ZM80.2848 27.0753C80.8956 27.0753 81.4117 26.9332 81.8331 26.6491C82.2592 26.3603 82.5812 25.9484 82.799 25.4134C83.0215 24.8736 83.1328 24.2273 83.1328 23.4744C83.1328 22.7405 83.0239 22.0942 82.8061 21.5355C82.5883 20.9768 82.2687 20.5412 81.8473 20.2287C81.4259 19.9115 80.9051 19.7528 80.2848 19.7528C79.6456 19.7528 79.1129 19.9186 78.6868 20.25C78.2607 20.5767 77.9387 21.0218 77.7209 21.5852C77.5078 22.1487 77.4013 22.7784 77.4013 23.4744C77.4013 24.1894 77.5102 24.8168 77.728 25.3565C77.9458 25.8963 78.2678 26.3177 78.6939 26.6207C79.1248 26.9238 79.6551 27.0753 80.2848 27.0753ZM92.6712 29.2202C91.6484 29.2202 90.7559 28.9858 89.9936 28.517C89.2313 28.0483 88.6394 27.3925 88.218 26.5497C87.7966 25.7069 87.5859 24.7221 87.5859 23.5952C87.5859 22.4635 87.7966 21.474 88.218 20.6264C88.6394 19.7789 89.2313 19.1207 89.9936 18.652C90.7559 18.1832 91.6484 17.9489 92.6712 17.9489C93.6939 17.9489 94.5864 18.1832 95.3487 18.652C96.111 19.1207 96.7029 19.7789 97.1243 20.6264C97.5457 21.474 97.7564 22.4635 97.7564 23.5952C97.7564 24.7221 97.5457 25.7069 97.1243 26.5497C96.7029 27.3925 96.111 28.0483 95.3487 28.517C94.5864 28.9858 93.6939 29.2202 92.6712 29.2202ZM92.6783 27.4375C93.3411 27.4375 93.8904 27.2623 94.326 26.9119C94.7616 26.5616 95.0836 26.0952 95.2919 25.5128C95.505 24.9304 95.6115 24.2888 95.6115 23.5881C95.6115 22.892 95.505 22.2528 95.2919 21.6705C95.0836 21.0833 94.7616 20.6122 94.326 20.2571C93.8904 19.902 93.3411 19.7244 92.6783 19.7244C92.0107 19.7244 91.4567 19.902 91.0163 20.2571C90.5807 20.6122 90.2564 21.0833 90.0433 21.6705C89.835 22.2528 89.7308 22.892 89.7308 23.5881C89.7308 24.2888 89.835 24.9304 90.0433 25.5128C90.2564 26.0952 90.5807 26.5616 91.0163 26.9119C91.4567 27.2623 92.0107 27.4375 92.6783 27.4375ZM107.037 24.4759V18.0909H109.168V29H107.08V27.1108H106.966C106.715 27.6932 106.313 28.1785 105.759 28.5668C105.21 28.9503 104.525 29.142 103.706 29.142C103.006 29.142 102.385 28.9882 101.846 28.6804C101.31 28.3679 100.889 27.9062 100.581 27.2955C100.278 26.6847 100.127 25.9295 100.127 25.0298V18.0909H102.25V24.7741C102.25 25.5175 102.456 26.1094 102.868 26.5497C103.28 26.9901 103.815 27.2102 104.473 27.2102C104.871 27.2102 105.266 27.1108 105.659 26.9119C106.057 26.7131 106.386 26.4124 106.647 26.0099C106.912 25.6075 107.042 25.0961 107.037 24.4759ZM117.114 18.0909V19.7955H111.155V18.0909H117.114ZM112.753 15.4773H114.876V25.7969C114.876 26.2088 114.938 26.5189 115.061 26.7273C115.184 26.9309 115.343 27.0705 115.537 27.1463C115.736 27.2173 115.951 27.2528 116.183 27.2528C116.354 27.2528 116.503 27.241 116.631 27.2173C116.759 27.1937 116.858 27.1747 116.929 27.1605L117.312 28.9148C117.189 28.9621 117.014 29.0095 116.787 29.0568C116.56 29.1089 116.276 29.1373 115.935 29.142C115.376 29.1515 114.855 29.0521 114.372 28.8438C113.889 28.6354 113.499 28.3134 113.2 27.8778C112.902 27.4422 112.753 26.8954 112.753 26.2372V15.4773Z" fill="white"/>
<path d="M40.2876 22.5L28.8126 22.5M40.2876 22.5L36.2376 18.1125M40.2876 22.5L36.2376 26.8875M29.4876 11.3625L23.4126 11.3625C21.9214 11.3625 20.7126 12.5713 20.7126 14.0625L20.7126 30.9375C20.7126 32.4287 21.9214 33.6375 23.4126 33.6375L29.4876 33.6375" stroke="white" stroke-width="1.5" stroke-linecap="round" stroke-linejoin="round"/>
</g>
<defs>
<filter id="filter0_d_132_1070" x="0" y="0" width="145" height="52" filterUnits="userSpaceOnUse" color-interpolation-filters="sRGB">
<feFlood flood-opacity="0" result="BackgroundImageFix"/>
<feColorMatrix in="SourceAlpha" type="matrix" values="0 0 0 0 0 0 0 0 0 0 0 0 0 0 0 0 0 0 127 0" result="hardAlpha"/>
<feOffset dy="4"/>
<feGaussianBlur stdDeviation="2"/>
<feComposite in2="hardAlpha" operator="out"/>
<feColorMatrix type="matrix" values="0 0 0 0 0 0 0 0 0 0 0 0 0 0 0 0 0 0 0.25 0"/>
<feBlend mode="normal" in2="BackgroundImageFix" result="effect1_dropShadow_132_1070"/>
<feBlend mode="normal" in="SourceGraphic" in2="effect1_dropShadow_132_1070" result="shape"/>
</filter>
</defs>
</svg>
