<svg width="168" height="29" viewBox="0 0 168 29" fill="none" xmlns="http://www.w3.org/2000/svg">
<path d="M4.22585 7.63068L8.95774 21.9418H9.14418L13.8672 7.63068H17.4893L11.0795 25.8125H7.01349L0.612571 7.63068H4.22585ZM19.7421 25.8125V12.1761H22.9559V25.8125H19.7421ZM21.3579 10.2408C20.8489 10.2408 20.4109 10.0721 20.0439 9.73473C19.677 9.39145 19.4935 8.98011 19.4935 8.50071C19.4935 8.01539 19.677 7.60405 20.0439 7.26669C20.4109 6.92341 20.8489 6.75178 21.3579 6.75178C21.8728 6.75178 22.3108 6.92341 22.6718 7.26669C23.0387 7.60405 23.2222 8.01539 23.2222 8.50071C23.2222 8.98011 23.0387 9.39145 22.6718 9.73473C22.3108 10.0721 21.8728 10.2408 21.3579 10.2408ZM32.2976 26.0788C30.9304 26.0788 29.7496 25.7947 28.7553 25.2266C27.7669 24.6525 27.0064 23.8416 26.4737 22.794C25.9411 21.7405 25.6747 20.5006 25.6747 19.0742C25.6747 17.6715 25.9411 16.4405 26.4737 15.381C27.0123 14.3157 27.764 13.4871 28.7287 12.8952C29.6934 12.2975 30.8268 11.9986 32.1289 11.9986C32.9693 11.9986 33.7624 12.1347 34.5082 12.407C35.2598 12.6733 35.9227 13.0876 36.4968 13.6499C37.0768 14.2121 37.5326 14.9283 37.864 15.7983C38.1954 16.6624 38.3612 17.6922 38.3612 18.8878V19.8732H27.1839V17.707H35.2805C35.2746 17.0915 35.1415 16.544 34.881 16.0646C34.6206 15.5793 34.2566 15.1976 33.7891 14.9194C33.3274 14.6412 32.7888 14.5021 32.1733 14.5021C31.5163 14.5021 30.9393 14.6619 30.4421 14.9815C29.945 15.2952 29.5573 15.7095 29.2791 16.2244C29.0069 16.7334 28.8678 17.2927 28.8619 17.9023V19.7933C28.8619 20.5864 29.0069 21.267 29.2969 21.8352C29.5869 22.3975 29.9923 22.8295 30.5131 23.1314C31.034 23.4273 31.6436 23.5753 32.342 23.5753C32.8095 23.5753 33.2327 23.5102 33.6115 23.38C33.9903 23.2438 34.3188 23.0456 34.5969 22.7852C34.8751 22.5247 35.0852 22.2022 35.2273 21.8175L38.228 22.1548C38.0386 22.9479 37.6776 23.6404 37.1449 24.2322C36.6181 24.8182 35.9434 25.2739 35.1207 25.5994C34.2981 25.919 33.357 26.0788 32.2976 26.0788ZM43.821 25.8125L39.968 12.1761H43.244L45.641 21.7642H45.7653L48.2156 12.1761H51.456L53.9062 21.7109H54.0394L56.4009 12.1761H59.6857L55.8239 25.8125H52.4769L49.9201 16.5973H49.7337L47.1768 25.8125H43.821ZM83.8357 13.7653H80.5154C80.4207 13.2208 80.2461 12.7384 79.9916 12.3182C79.7371 11.892 79.4204 11.531 79.0416 11.2351C78.6628 10.9392 78.2308 10.7172 77.7455 10.5692C77.2661 10.4154 76.7482 10.3384 76.1919 10.3384C75.2035 10.3384 74.3275 10.587 73.564 11.0842C72.8005 11.5754 72.2027 12.2975 71.7707 13.2504C71.3386 14.1973 71.1226 15.3544 71.1226 16.7216C71.1226 18.1125 71.3386 19.2843 71.7707 20.2372C72.2087 21.1842 72.8064 21.9003 73.564 22.3857C74.3275 22.8651 75.2005 23.1048 76.183 23.1048C76.7275 23.1048 77.2365 23.0337 77.71 22.8917C78.1894 22.7437 78.6185 22.5277 78.9972 22.2436C79.382 21.9595 79.7045 21.6103 79.9649 21.196C80.2313 20.7817 80.4147 20.3082 80.5154 19.7756L83.8357 19.7933C83.7114 20.6574 83.4421 21.4683 83.0278 22.2259C82.6194 22.9834 82.0838 23.6522 81.4209 24.2322C80.758 24.8063 79.9827 25.2562 79.0949 25.5817C78.2071 25.9013 77.2217 26.0611 76.1386 26.0611C74.5406 26.0611 73.1142 25.6912 71.8595 24.9513C70.6047 24.2115 69.6163 23.1432 68.8943 21.7464C68.1722 20.3497 67.8112 18.6747 67.8112 16.7216C67.8112 14.7625 68.1752 13.0876 68.9031 11.6967C69.6311 10.3 70.6225 9.23165 71.8772 8.49183C73.132 7.75201 74.5524 7.3821 76.1386 7.3821C77.1507 7.3821 78.0917 7.52415 78.9617 7.80824C79.8318 8.09233 80.6071 8.50959 81.2877 9.06001C81.9684 9.60452 82.5277 10.2733 82.9656 11.0664C83.4095 11.8536 83.6995 12.7532 83.8357 13.7653ZM90.6339 26.0877C89.7698 26.0877 88.9915 25.9338 88.299 25.6261C87.6125 25.3124 87.0679 24.8507 86.6655 24.2411C86.2689 23.6315 86.0707 22.8799 86.0707 21.9862C86.0707 21.2167 86.2127 20.5805 86.4968 20.0774C86.7809 19.5743 87.1686 19.1719 87.6598 18.87C88.151 18.5682 88.7044 18.3403 89.32 18.1864C89.9414 18.0266 90.5836 17.9112 91.2464 17.8402C92.0455 17.7573 92.6935 17.6834 93.1907 17.6183C93.6879 17.5472 94.0489 17.4407 94.2738 17.2987C94.5046 17.1507 94.62 16.9228 94.62 16.6151V16.5618C94.62 15.893 94.4218 15.3751 94.0252 15.0082C93.6287 14.6412 93.0575 14.4577 92.3118 14.4577C91.5246 14.4577 90.9002 14.6294 90.4386 14.9727C89.9828 15.3159 89.6751 15.7214 89.5153 16.1889L86.5146 15.7628C86.7513 14.9342 87.1419 14.2417 87.6864 13.6854C88.2309 13.1231 88.8968 12.7029 89.6839 12.4247C90.4711 12.1406 91.3411 11.9986 92.294 11.9986C92.951 11.9986 93.605 12.0755 94.256 12.2294C94.9071 12.3833 95.5019 12.6378 96.0405 12.9929C96.5791 13.3421 97.0111 13.8185 97.3366 14.4222C97.6681 15.0259 97.8338 15.7805 97.8338 16.6861V25.8125H94.7443V23.9393H94.6378C94.4425 24.3181 94.1673 24.6732 93.8121 25.0046C93.4629 25.3301 93.022 25.5935 92.4893 25.7947C91.9626 25.9901 91.3441 26.0877 90.6339 26.0877ZM91.4684 23.7262C92.1135 23.7262 92.6728 23.599 93.1463 23.3445C93.6198 23.084 93.9838 22.7408 94.2383 22.3146C94.4987 21.8885 94.6289 21.4239 94.6289 20.9208V19.3139C94.5283 19.3968 94.3567 19.4737 94.114 19.5447C93.8772 19.6158 93.6109 19.6779 93.315 19.7312C93.0191 19.7844 92.7261 19.8318 92.4361 19.8732C92.1461 19.9147 91.8945 19.9502 91.6815 19.9798C91.2021 20.0449 90.773 20.1514 90.3942 20.2994C90.0154 20.4473 89.7165 20.6545 89.4975 20.9208C89.2785 21.1812 89.169 21.5186 89.169 21.9329C89.169 22.5247 89.3851 22.9716 89.8171 23.2734C90.2492 23.5753 90.7996 23.7262 91.4684 23.7262ZM101.065 25.8125V12.1761H104.181V14.4489H104.324C104.572 13.6617 104.998 13.055 105.602 12.6289C106.212 12.1969 106.907 11.9808 107.688 11.9808C107.866 11.9808 108.064 11.9897 108.283 12.0075C108.508 12.0193 108.694 12.04 108.842 12.0696V15.0259C108.706 14.9786 108.49 14.9371 108.194 14.9016C107.904 14.8602 107.623 14.8395 107.351 14.8395C106.765 14.8395 106.238 14.9667 105.771 15.2212C105.309 15.4698 104.945 15.8161 104.679 16.2599C104.412 16.7038 104.279 17.2158 104.279 17.7958V25.8125H101.065ZM118.519 12.1761V14.6619H110.68V12.1761H118.519ZM112.615 8.90909H115.829V21.7109C115.829 22.143 115.894 22.4744 116.025 22.7053C116.161 22.9302 116.338 23.084 116.557 23.1669C116.776 23.2498 117.019 23.2912 117.285 23.2912C117.486 23.2912 117.67 23.2764 117.836 23.2468C118.007 23.2172 118.137 23.1906 118.226 23.1669L118.768 25.6793C118.596 25.7385 118.35 25.8036 118.031 25.8746C117.717 25.9457 117.333 25.9871 116.877 25.9989C116.072 26.0226 115.347 25.9013 114.702 25.6349C114.057 25.3627 113.545 24.9425 113.166 24.3743C112.793 23.8061 112.609 23.0959 112.615 22.2436V8.90909Z" fill="white"/>
<path d="M129.363 19.3333H138.876C144.753 19.3333 145.647 15.9269 146.731 10.9585C147.044 9.52543 147.2 8.80891 146.824 8.33154C146.448 7.85417 145.727 7.85417 144.286 7.85417H126.743" stroke="white" stroke-width="1.5" stroke-linecap="round"/>
<path d="M129.363 19.3333L125.93 4.24721C125.638 3.17139 124.59 2.41667 123.388 2.41667H122.159" stroke="white" stroke-width="1.5" stroke-linecap="round"/>
<path d="M130.515 19.3333H129.976C128.191 19.3333 126.743 20.7245 126.743 22.4405C126.743 22.7265 126.984 22.9583 127.282 22.9583H141.805" stroke="white" stroke-width="1.5" stroke-linecap="round" stroke-linejoin="round"/>
<ellipse cx="132.637" cy="24.7708" rx="1.9646" ry="1.8125" stroke="white" stroke-width="1.5"/>
<ellipse cx="141.805" cy="24.7708" rx="1.9646" ry="1.8125" stroke="white" stroke-width="1.5"/>
</svg>
